<?xml version="1.0" standalone="no"?><!DOCTYPE svg PUBLIC "-//W3C//DTD SVG 1.1//EN" "http://www.w3.org/Graphics/SVG/1.1/DTD/svg11.dtd"><svg t="1638966915247" class="icon" viewBox="0 0 1029 1024" version="1.1" xmlns="http://www.w3.org/2000/svg" p-id="9360" width="128.625" height="128" xmlns:xlink="http://www.w3.org/1999/xlink"><defs><style type="text/css"></style></defs><path d="M756.58 280.916c-1.39-8.774-1.845-9.143-10.83-10.808-16.505-3.064-33.135-2.434-49.648-0.734a404.183 404.183 0 0 0-95.742 21.859c-54.909 19.785-103.405 49.347-142.596 93.15-2.21 2.466-4.472 2.912-7.672 2.565-16.874-1.823-33.796-4.791-50.688-4.661-29.49 0.238-52.528 13.755-68.52 38.781-8.728 13.679-17.385 27.403-26.097 41.1-8.094 12.71-16.423 25.278-24.261 38.147-11.15 18.313-0.598 40.249 20.203 41.818 25.013 1.89 50.053 3.37 75.098 4.757 4.504 0.251 6.43 1.471 6.88 6.259 1.489 15.941 5.728 31.123 14.285 44.842 16.64 26.679 40.866 41.365 71.823 45.446 11.659 1.534 11.329 1.647 12.167 13.683 1.678 24.055 3.447 48.123 5.696 72.132 1.967 20.91 23.632 31.372 41.257 19.844 27.982-18.286 56.172-36.307 83.286-55.836 25.266-18.2 36.25-43.852 33.018-75.196-1.381-13.44-2.483-26.907-3.851-40.347-0.428-4.163 0.58-7.317 3.797-10.255 39.642-36.339 67.926-80.313 87.26-130.276 16.158-41.76 25.842-84.867 27.214-129.705 0.404-8.963-0.693-17.782-2.079-26.565zM608.01 473.07c-28.928-0.207-54.85-26.13-54.247-54.742 0.715-34.313 26.893-56.28 57.112-55.78 29.099 0.476 53.581 25.903 53.216 55.46a55.506 55.506 0 0 1-56.083 55.062z" p-id="9361" fill="#19b0f1"></path><path d="M339.106 586.76c7.415 0.103 11.519 3.38 14.178 10.948 10.416 29.68 29.378 52.195 56.865 67.457a116.755 116.755 0 0 0 19.06 8.352c11.88 4.05 14.583 15.622 5.769 24.522-13.044 13.17-26.228 26.191-39.277 39.371-4.31 4.351-9.061 6.416-15.123 4.158-6.164-2.29-9.138-6.853-9.448-13.238-0.194-4.04-0.095-8.103-0.19-12.157-0.18-7.452-0.247-7.515-7.095-5.242-14.66 4.855-29.301 9.755-43.957 14.614-4.32 1.431-8.657 2.02-12.882-0.369-6.197-3.51-8.535-9.787-6.038-17.512 4.869-15.051 9.975-30.035 14.952-45.059 2.159-6.515 2.029-6.66-5.008-6.768-4.248-0.066-8.505 0-12.743-0.206-6.179-0.293-10.574-3.285-12.86-9.13-2.232-5.7-0.81-10.664 3.366-14.854 13.61-13.696 27.28-27.33 40.95-40.972 2.713-2.717 5.944-4.252 9.481-3.914z m-58.409 123.135c2.884 0.045 4.482 1.314 5.516 4.257-15.762 43.777 26.97 28.608 29.532 29.49 4.62 1.58 5.673 6.075 2.25 9.535-5.077 5.124-10.206 10.195-15.282 15.317-1.679 1.696-3.523 2.496-5.89 1.614-2.394-0.89-3.555-2.667-3.672-5.156-0.076-1.574-0.035-3.145-0.072-4.729-0.07-2.897-0.094-2.92-2.766-2.039-5.701 1.886-11.398 3.799-17.104 5.689-1.678 0.553-3.365 0.79-5.003-0.15-2.411-1.362-3.32-3.806-2.349-6.807 1.89-5.859 3.874-11.685 5.814-17.525 0.841-2.534 0.791-2.597-1.949-2.637-1.651-0.027-3.302 0-4.958-0.082-2.398-0.112-4.113-1.272-5.004-3.55-0.868-2.218-0.31-4.153 1.305-5.781 5.291-5.324 10.62-10.624 15.933-15.93 1.071-1.038 2.322-1.641 3.7-1.516z" p-id="9362" fill="#19b0f1"></path><path d="M588.985 956.072c-244.862 39.996-476.608-126.677-516.6-371.545C49.28 443.067 93.17 302.677 192.794 199.37a19.02 19.02 0 1 1 27.38 26.412c-91.225 94.581-131.415 223.102-110.262 352.623 36.612 224.159 248.78 376.748 472.948 340.14C807.022 881.932 959.61 669.76 923.002 445.6 886.39 221.435 674.23 68.838 450.056 105.45c-40.856 6.674-80.165 19.26-116.871 37.504a19.01 19.01 0 1 1-16.902-34.057c40.115-19.932 83.059-33.691 127.645-40.967 244.876-39.998 476.608 126.662 516.604 371.537S833.852 916.08 588.985 956.071z" p-id="9363" fill="#19b0f1"></path></svg>